<?xml version="1.0" encoding="utf-8"?>
<!-- Generator: Adobe Illustrator 15.0.0, SVG Export Plug-In . SVG Version: 6.00 Build 0)  -->
<!DOCTYPE svg PUBLIC "-//W3C//DTD SVG 1.1//EN" "http://www.w3.org/Graphics/SVG/1.1/DTD/svg11.dtd">
<svg version="1.1" id="Layer_1" xmlns="http://www.w3.org/2000/svg" xmlns:xlink="http://www.w3.org/1999/xlink" x="0px" y="0px"
	 width="256.32px" height="255.898px" viewBox="-99.929 -17.968 256.32 255.898"
	 enable-background="new -99.929 -17.968 256.32 255.898" xml:space="preserve">
<g>
	
		<radialGradient id="SVGID_1_" cx="1707.6526" cy="581.0176" r="162.8645" gradientTransform="matrix(-0.1908 0.9816 -1.4724 -0.2862 1303.7776 -1449.2211)" gradientUnits="userSpaceOnUse">
		<stop  offset="0.1879" style="stop-color:#4EF0E7"/>
		<stop  offset="0.5152" style="stop-color:#2EBCF7"/>
		<stop  offset="0.5441" style="stop-color:#2CB3F5"/>
		<stop  offset="0.6702" style="stop-color:#2293EC"/>
		<stop  offset="0.7912" style="stop-color:#1B7BE5"/>
		<stop  offset="0.9039" style="stop-color:#176DE1"/>
		<stop  offset="1" style="stop-color:#1668E0"/>
	</radialGradient>
	<path fill="url(#SVGID_1_)" d="M81.728,133.419c-8.251,0-15.703,3.34-21.106,8.746l0,0c-17.771,17.769-46.583,17.769-64.353,0
		c0,0,0,0,0-0.01c-17.773-17.766-17.773-46.577,0-64.354l0,0c5.402-5.399,8.74-12.856,8.74-21.1c0-16.485-13.361-29.84-29.836-29.84
		c-16.495,0-29.855,13.355-29.855,29.84c0,8.244,3.342,15.701,8.746,21.1l0,0c17.772,17.778,17.781,46.579,0,64.354
		c-2.698,2.707-4.885,5.92-6.392,9.489c-1.517,3.565-2.351,7.496-2.351,11.622c0,4.117,0.835,8.044,2.351,11.613
		c4.521,10.707,15.138,18.226,27.504,18.226l0,0l0,0c8.233,0,15.695-3.343,21.098-8.739l0,0c17.765-17.773,46.572-17.773,64.353,0
		l0,0c5.403,5.396,12.855,8.739,21.106,8.739c16.478,0,29.839-13.358,29.839-29.839C111.568,146.782,98.206,133.419,81.728,133.419z
		"/>
	
		<radialGradient id="SVGID_2_" cx="1707.6545" cy="581.0137" r="162.8669" gradientTransform="matrix(-0.1908 0.9816 -1.4724 -0.2862 1303.7795 -1449.224)" gradientUnits="userSpaceOnUse">
		<stop  offset="0.1879" style="stop-color:#4EF0E7"/>
		<stop  offset="0.5152" style="stop-color:#2EBCF7"/>
		<stop  offset="0.5441" style="stop-color:#2CB3F5"/>
		<stop  offset="0.6702" style="stop-color:#2293EC"/>
		<stop  offset="0.7912" style="stop-color:#1B7BE5"/>
		<stop  offset="0.9039" style="stop-color:#176DE1"/>
		<stop  offset="1" style="stop-color:#1668E0"/>
	</radialGradient>
	<path fill="url(#SVGID_2_)" d="M81.728,86.543c16.478,0,29.838-13.362,29.838-29.842c0-16.485-13.36-29.84-29.838-29.84
		c-16.482,0-29.844,13.355-29.844,29.84C51.883,73.181,65.246,86.543,81.728,86.543z"/>
	
		<radialGradient id="SVGID_3_" cx="1707.6624" cy="581.0117" r="162.877" gradientTransform="matrix(-0.1908 0.9816 -1.4724 -0.2862 1303.7834 -1449.2386)" gradientUnits="userSpaceOnUse">
		<stop  offset="0.1879" style="stop-color:#4EF0E7"/>
		<stop  offset="0.5152" style="stop-color:#2EBCF7"/>
		<stop  offset="0.5441" style="stop-color:#2CB3F5"/>
		<stop  offset="0.6702" style="stop-color:#2293EC"/>
		<stop  offset="0.7912" style="stop-color:#1B7BE5"/>
		<stop  offset="0.9039" style="stop-color:#176DE1"/>
		<stop  offset="1" style="stop-color:#1668E0"/>
	</radialGradient>
	<path fill="url(#SVGID_3_)" d="M28.436,82.259c-15.304,0-27.714,12.414-27.714,27.721c0,15.312,12.41,27.721,27.714,27.721
		c15.31,0,27.731-12.409,27.731-27.721C56.167,94.673,43.746,82.259,28.436,82.259z"/>
	
		<radialGradient id="SVGID_4_" cx="1707.6497" cy="581.0127" r="162.8689" gradientTransform="matrix(-0.1908 0.9816 -1.4724 -0.2862 1303.7756 -1449.2133)" gradientUnits="userSpaceOnUse">
		<stop  offset="0.1879" style="stop-color:#4EF0E7"/>
		<stop  offset="0.5152" style="stop-color:#2EBCF7"/>
		<stop  offset="0.5441" style="stop-color:#2CB3F5"/>
		<stop  offset="0.6702" style="stop-color:#2293EC"/>
		<stop  offset="0.7912" style="stop-color:#1B7BE5"/>
		<stop  offset="0.9039" style="stop-color:#176DE1"/>
		<stop  offset="1" style="stop-color:#1668E0"/>
	</radialGradient>
	<path fill="url(#SVGID_4_)" d="M28.436,26.859c12.383,0,22.42-10.036,22.42-22.414c0-12.377-10.039-22.414-22.42-22.414
		c-12.372,0-22.402,10.037-22.402,22.414C6.034,16.823,16.064,26.859,28.436,26.859z"/>
	
		<radialGradient id="SVGID_5_" cx="1707.6516" cy="581.0176" r="162.8547" gradientTransform="matrix(-0.1908 0.9816 -1.4724 -0.2862 1303.7776 -1449.2123)" gradientUnits="userSpaceOnUse">
		<stop  offset="0.1879" style="stop-color:#4EF0E7"/>
		<stop  offset="0.5152" style="stop-color:#2EBCF7"/>
		<stop  offset="0.5441" style="stop-color:#2CB3F5"/>
		<stop  offset="0.6702" style="stop-color:#2293EC"/>
		<stop  offset="0.7912" style="stop-color:#1B7BE5"/>
		<stop  offset="0.9039" style="stop-color:#176DE1"/>
		<stop  offset="1" style="stop-color:#1668E0"/>
	</radialGradient>
	<path fill="url(#SVGID_5_)" d="M28.436,193.107c-12.372,0-22.402,10.032-22.402,22.406c0,12.379,10.03,22.417,22.402,22.417
		c12.383,0,22.42-10.038,22.42-22.417C50.857,203.14,40.819,193.107,28.436,193.107z"/>
	
		<radialGradient id="SVGID_6_" cx="1707.6536" cy="581.0156" r="162.859" gradientTransform="matrix(-0.1908 0.9816 -1.4724 -0.2862 1303.7756 -1449.222)" gradientUnits="userSpaceOnUse">
		<stop  offset="0.1879" style="stop-color:#4EF0E7"/>
		<stop  offset="0.5152" style="stop-color:#2EBCF7"/>
		<stop  offset="0.5441" style="stop-color:#2CB3F5"/>
		<stop  offset="0.6702" style="stop-color:#2293EC"/>
		<stop  offset="0.7912" style="stop-color:#1B7BE5"/>
		<stop  offset="0.9039" style="stop-color:#176DE1"/>
		<stop  offset="1" style="stop-color:#1668E0"/>
	</radialGradient>
	<path fill="url(#SVGID_6_)" d="M133.97,87.57c-12.372,0-22.402,10.034-22.402,22.412c0,12.376,10.03,22.41,22.402,22.41
		c12.382,0,22.42-10.033,22.42-22.41C156.39,97.604,146.348,87.57,133.97,87.57z"/>
	
		<radialGradient id="SVGID_7_" cx="1707.6292" cy="581.0186" r="162.8345" gradientTransform="matrix(-0.1908 0.9816 -1.4724 -0.2862 1303.7405 -1449.1927)" gradientUnits="userSpaceOnUse">
		<stop  offset="0.1879" style="stop-color:#4EF0E7"/>
		<stop  offset="0.5152" style="stop-color:#2EBCF7"/>
		<stop  offset="0.5441" style="stop-color:#2CB3F5"/>
		<stop  offset="0.6702" style="stop-color:#2293EC"/>
		<stop  offset="0.7912" style="stop-color:#1B7BE5"/>
		<stop  offset="0.9039" style="stop-color:#176DE1"/>
		<stop  offset="1" style="stop-color:#1668E0"/>
	</radialGradient>
	<path fill="url(#SVGID_7_)" d="M-77.087,87.57c-12.371,0-22.413,10.034-22.413,22.412c0,12.376,10.042,22.41,22.413,22.41
		c12.375,0,22.402-10.033,22.402-22.41C-54.684,97.604-64.713,87.57-77.087,87.57z"/>
</g>
</svg>
